<?xml version="1.0" encoding="utf-8"?>
<!-- Generator: Adobe Illustrator 15.1.0, SVG Export Plug-In . SVG Version: 6.00 Build 0)  -->
<!DOCTYPE svg PUBLIC "-//W3C//DTD SVG 1.1//EN" "http://www.w3.org/Graphics/SVG/1.1/DTD/svg11.dtd">
<svg version="1.1" id="Livello_1" xmlns:sketch="http://www.bohemiancoding.com/sketch/ns"
	 xmlns="http://www.w3.org/2000/svg" xmlns:xlink="http://www.w3.org/1999/xlink" x="0px" y="0px" width="100px" height="30px"
	 viewBox="0 0 100 30" enable-background="new 0 0 100 30" xml:space="preserve">
<title>achab-footer-logo</title>
<desc>Created with Sketch.</desc>
<g id="Page-1" sketch:type="MSPage">
	<g id="achab-footer-logo" sketch:type="MSArtboardGroup">
		<path id="Fill-66" sketch:type="MSShapeGroup" fill="#828A92" d="M80.18,24.459v0.007h10.178c3.719,0,6.59-3.825,6.59-6.608
			c0-3.569-2.492-5.33-2.492-5.33s2.518-1.179,2.518-4.545c0-5.913-5.215-7.253-6.857-7.253h-6.064l-1.227,4.952h6.721
			c0.873,0,2.178,0.749,2.178,2.201c0,1.5-1.277,2.217-2.178,2.217h-6.866l-1.196,4.829h8.063c0.74,0,2.193,0.545,2.193,2.173
			c0,1.277-1.275,2.075-2.193,2.075l-9.215,0.005L75.421,0.729h-5.878l5.53,18.445h-5.396l1.173-4.647H66.12l-2.627,9.933H80.18
			L80.18,24.459z M13.432,24.466l6.179-5.285h5.371l-2.729-9.78l-2.465,8.849h-4.72l4.654-17.521h5.493l6.425,23.737H13.432z
			 M44.234,6.29l1.474-5.856c-0.563-0.058-2.037-0.379-3.612-0.427c-11.4-0.35-11.964,12.615-11.964,12.615
			s-0.575,7.396,5.808,10.888c2.102,1.15,4.573,0.881,6.447,0.768l1.431-5.633c-8.17,1.305-7.932-5.194-7.878-6.42
			C36.267,4.354,44.234,6.29,44.234,6.29z M5.169,26.994c-0.062,0.675,0.028,1.545,1.091,2.271l-0.549,0.208
			C4.972,28.934,4.5,28.203,4.5,27.213c0-4.385,7.096-8.044,11.612-8.044h2.792l-6.306,5.286l-2.459,0.021
			C8.576,24.477,5.348,25.043,5.169,26.994z M43.178,15.431l1.281-5.063h3.727l2.426-9.64h5.808l-2.418,9.64h5.765l2.422-9.64H68
			l-5.954,23.727h-5.813l2.264-9.024H52.73l-2.266,9.024h-5.813l2.265-9.024H43.178z"/>
	</g>
</g>
</svg>
